<?xml version="1.0" encoding="utf-8"?>
<!-- Generator: Adobe Illustrator 19.2.1, SVG Export Plug-In . SVG Version: 6.00 Build 0)  -->
<svg version="1.1" id="レイヤー_1" xmlns="http://www.w3.org/2000/svg" xmlns:xlink="http://www.w3.org/1999/xlink" x="0px"
	 y="0px" viewBox="0 0 1216.2 624.1" style="enable-background:new 0 0 1216.2 624.1;" xml:space="preserve">
<style type="text/css">
	.st0{fill:#45B035;}
	.st1{clip-path:url(#SVGID_2_);fill:url(#SVGID_3_);}
</style>
<g>
	<polygon points="517.9,79.2 644.3,93.8 516.1,258 248.3,258 450.5,121.1 	"/>
	<polygon class="st0" points="948.6,612.1 1200.4,95.7 1089.6,95.7 880.6,363.2 	"/>
	<g>
		<defs>
			<path id="SVGID_1_" d="M450.5,121.1l11.4-7.4C458,116.1,454.1,118.6,450.5,121.1 M535.7,65.7l-73.8,47.9
				c40.8-25.2,100.5-47.7,166.4,0.5c30.7,22.5,75.9,91.3,150.9,215.6c55.6,92.3,169.4,282.3,169.4,282.3l194.9-399.6
				c-13.2,26.9-40.9,45.5-72.9,45.5c-19.8,0-44.2-7-72.9-34.7c-52.3-50.8-134.9-132.1-186.1-167c-43.2-29.5-84.8-44.2-127.6-44.3
				C637.2,12.1,588.9,29.9,535.7,65.7"/>
		</defs>
		<clipPath id="SVGID_2_">
			<use xlink:href="#SVGID_1_"  style="overflow:visible;"/>
		</clipPath>
		
			<linearGradient id="SVGID_3_" gradientUnits="userSpaceOnUse" x1="296.4507" y1="879.9276" x2="309.3881" y2="879.9276" gradientTransform="matrix(44.5747 30.066 30.066 -44.5747 -39203.6172 30398.5254)">
			<stop  offset="0" style="stop-color:#85C362"/>
			<stop  offset="0.2" style="stop-color:#63B746"/>
			<stop  offset="0.4" style="stop-color:#3A9A2D"/>
			<stop  offset="1" style="stop-color:#003400"/>
		</linearGradient>
		<polygon class="st1" points="667.2,-309.2 1421.7,199.7 926.8,933.3 172.4,424.5 		"/>
	</g>
	<path d="M661.5,379.7c-1.9-3.3-5.8-5.5-10.3-5.5H565c-4.6,0-8.5,2.2-10.5,5.5c-4.4,7.8-7.4,24.4-7.4,43.5c0,19.1,3,35.7,7.4,43.6
		c1.9,3.3,5.8,5.4,10.5,5.4h86.1c4.5,0,8.5-2.2,10.3-5.4c4.4-7.9,7.5-24.5,7.5-43.6C669,404,665.9,387.5,661.5,379.7 M635.3,455.3
		h-54.5c-3.2-5.8-5.4-18-5.4-32.1c0-14.1,2.1-26.4,5.4-32.2h54.5c3.3,5.8,5.4,18.1,5.4,32.2C640.7,437.3,638.6,449.5,635.3,455.3"/>
	<path d="M174,379.7c-4.4,7.8-7.4,24.4-7.4,43.5c0,19.1,2.9,35.7,7.4,43.6c1.9,3.3,5.8,5.4,10.4,5.4h82.2v-16.9h-66.3
		c-2.6-4.6-4.6-13.3-5.2-23.6H257v-16.9h-61.9c0.7-10.4,2.6-19.1,5.2-23.7h66.3v-16.9h-82.2C179.8,374.1,175.9,376.3,174,379.7"/>
	<path d="M429.6,379.7c-4.5,7.8-7.5,24.4-7.5,43.5c0,19.1,3,35.7,7.5,43.6c1.8,3.3,5.8,5.4,10.3,5.4h82.2v-16.9h-66.3
		c-3.2-5.8-5.4-18-5.4-32.1c0-14.1,2.1-26.4,5.4-32.2h66.3v-16.9h-82.2C435.4,374.1,431.4,376.3,429.6,379.7"/>
	<path d="M109.3,443.1H108l-46-58.7c-4.7-6.4-12.5-10.2-25.6-10.2H15.8v98.1H44v-69h1.4L91.2,462c4.8,6.4,12.5,10.2,25.7,10.2h20.6
		v-98.1h-28.3V443.1z"/>
	<path d="M399.4,374.1h-15.9c-13.2,0-21,3.8-25.7,10.2l-14.5,18.6l-14.5-18.6c-4.7-6.4-12.5-10.2-25.7-10.2h-15.9l35.7,45.5
		l-41.4,52.6h15.9c13.3,0,21-3.9,25.8-10.2l20.1-25.6l20.1,25.6c4.8,6.4,12.5,10.2,25.8,10.2h15.9l-41.5-52.6L399.4,374.1z"/>
	<path d="M254.6,534v-8.3h-33.1v-7.1h-9.5v7.1h-32.9v8.3h32.9v5.2h-25.4c-4.2,0-7.6,3.3-7.6,7.6v20.5c0,4.2,3.3,7.5,7.6,7.5h16.8
		c-7.2,7.1-15.6,12.8-24.3,16.3v10.2c8.7-3.3,22.7-11.2,32.3-22.6h0.6v22.6h9.5v-22.6h0.6c9.6,11.5,23.7,19.3,32.5,22.6v-10.2
		c-8.9-3.5-17.3-9.2-24.3-16.3h16.8c4.1,0,7.6-3.3,7.6-7.5v-20.5c0-4.2-3.4-7.6-7.6-7.6h-25.5V534H254.6z M188.4,549
		c0-1.3,1-2.5,2.5-2.5h21.2v6.9h-23.7V549z M190.8,567.5c-1.4,0-2.5-1.1-2.5-2.4v-4.6h23.7v7H190.8z M245.2,565.1
		c0,1.3-1,2.4-2.4,2.4h-21.2v-7h23.7V565.1z M242.8,546.5c1.4,0,2.4,1.2,2.4,2.5v4.5h-23.7v-6.9H242.8z"/>
	<path d="M367.4,522.6h-50.1c-4.2,0-7.5,3.3-7.5,7.5v63.7c0,4,3.1,7.3,7,7.4h50.9c4-0.1,7.2-3.4,7.2-7.4v-63.7
		C375,525.9,371.6,522.6,367.4,522.6 M364.8,589.6c0,1.3-1.1,2.5-2.6,2.5h-39.7c-1.4,0-2.4-1.2-2.4-2.5v-23.7h44.7V589.6z
		 M364.8,556.9H320v-22.6c0-1.4,1.1-2.6,2.4-2.6h39.7c1.5,0,2.6,1.2,2.6,2.6V556.9z"/>
	<path d="M430.2,531.7h33v-13.1h9.5v13.1h33.1v9h-27.2c5.7,13.2,15.9,36.7,27.2,43.3v12c-14-4.3-25.9-28.4-32.8-45.6h-0.3v32.3h14.5
		v8.9h-14.5v9.7h-9.5v-9.7h-14.4v-8.9h14.4v-32.3H463c-6.9,17.2-18.8,41.4-32.8,45.6v-12c11.2-6.6,21.5-30.1,27.2-43.3h-27.2V531.7z
		"/>
</g>
</svg>
